<svg width="700" height="411" viewBox="0 0 700 411" fill="none" xmlns="http://www.w3.org/2000/svg">
<path d="M129.354 129.945L59.8645 60.1604C21.5295 98.5776 0 150.633 0 204.905C0 259.177 21.5295 311.233 59.8645 349.65L129.65 279.865C109.766 260.005 98.5685 233.07 98.513 204.966C98.4576 176.863 109.548 149.884 129.354 129.945Z" fill="#E8710A"/>
<path d="M59.8643 60.1601L129.354 129.945C139.213 120.074 150.921 112.244 163.808 106.901C176.696 101.559 190.51 98.8088 204.461 98.8088C218.412 98.8088 232.227 101.559 245.114 106.901C258.002 112.244 269.71 120.074 279.569 129.945L330.134 43.3052L327.177 40.9396C287.736 11.5145 239.024 -2.73573 189.943 0.793324C140.862 4.32238 94.6895 25.395 59.8643 60.1601Z" fill="#F9AB00"/>
<path d="M330.429 366.505L279.569 280.161C269.71 290.031 258.002 297.862 245.114 303.204C232.227 308.547 218.412 311.297 204.461 311.297C190.51 311.297 176.696 308.547 163.808 303.204C150.921 297.862 139.213 290.031 129.354 280.161L59.8643 349.946C94.62 384.401 140.559 405.279 189.372 408.805C238.185 412.33 286.648 398.269 325.994 369.166L329.247 366.505" fill="#F9AB00"/>
<path d="M349.946 60.1602C311.611 98.5774 290.081 150.633 290.081 204.905C290.081 259.177 311.611 311.233 349.946 349.65L419.731 279.865C399.811 259.945 388.62 232.928 388.62 204.757C388.62 176.586 399.811 149.569 419.731 129.65C439.65 109.73 466.668 98.5389 494.838 98.5389C523.009 98.5389 550.026 109.73 569.946 129.65L640.027 60.1602C620.993 41.0895 598.385 25.9597 573.497 15.6366C548.61 5.31358 521.93 0 494.986 0C468.042 0 441.363 5.31358 416.475 15.6366C391.587 25.9597 368.979 41.0895 349.946 60.1602Z" fill="#F9AB00"/>
<path d="M640.027 60.1604L570.537 129.945C590.457 149.865 601.648 176.882 601.648 205.053C601.648 233.224 590.457 260.241 570.537 280.161C550.617 300.081 523.6 311.271 495.43 311.271C467.259 311.271 440.242 300.081 420.322 280.161L349.945 349.946C388.373 388.413 440.508 410.039 494.881 410.067C521.804 410.081 548.466 404.791 573.345 394.501C598.223 384.211 620.832 369.121 639.879 350.094C658.926 331.066 674.039 308.473 684.354 283.605C694.67 258.737 699.986 232.08 700 205.158C700.014 178.235 694.724 151.573 684.434 126.694C674.144 101.816 659.054 79.2074 640.027 60.1604Z" fill="#E8710A"/>
</svg>
