<svg width="700" height="700" viewBox="0 0 700 700" fill="none" xmlns="http://www.w3.org/2000/svg">
<path d="M209.203 623.35C182.543 599.826 154.119 577.29 134.644 545.57C93.7399 489.62 62.227 424.768 40.7351 356.666C27.6888 312.372 23.277 264.898 6.44904 222.3C-11.0722 191.357 9.47429 157.589 39.6637 147.769C53.0882 144.873 76.7859 130.603 48.2352 140.846C22.6467 161.898 20.1887 121.701 46.4075 119.158C64.3068 116.474 70.9245 100.084 64.811 85.2486C45.5881 71.1903 111.45 55.7191 78.2986 34.7376C43.7604 -7.01352 126.576 -15.067 106.156 32.4063C101.303 68.859 164.014 25.695 149.455 67.7994C164.266 88.0038 204.918 72.3913 203.846 100.79C225.401 102.486 232.838 122.761 253.006 124.315C273.994 134.912 311.999 143.319 319.121 169.811C298.322 188.249 250.107 131.662 247.838 182.809C254.141 258.328 252.502 336.108 277.145 408.025C288.805 451.542 317.041 485.805 342.566 519.714C367.02 552.917 400.046 576.301 433.828 596.011C463.387 611.623 495.278 622.008 527.547 628.507C540.594 617.275 563.724 575.665 584.081 593.185C585.09 612.966 543.619 634.442 582.128 632.322C604.754 624.693 620.447 651.891 639.103 627.306C656.246 650.125 710.448 612.754 698.221 659.309C681.709 671.248 657.633 664.042 641.057 680.502C613.767 665.243 592.086 694.136 561.896 690.534C528.367 697.245 494.269 700 460.235 700C404.458 695.055 347.482 693.006 294.477 671.248C264.603 661.499 235.422 642.424 209.203 623.35ZM256.284 646.239C285.465 660.368 314.015 675.274 345.97 679.796C396.705 687.708 449.143 699.859 500.068 688.767C477 677.111 453.177 693.289 430.235 680.431C402.693 687.072 373.134 678.736 345.15 674.638C313.322 658.743 278.973 647.793 249.162 627.165C211.913 611.906 268.448 646.734 278.469 649.56C301.725 664.395 252.88 641.93 245.947 635.784C226.472 623.492 223.951 626.105 243.994 638.539C248.027 641.153 252.061 643.979 256.284 646.239ZM200.758 602.228C229.057 613.955 200.632 579.904 187.712 581.882C181.976 570.72 165.779 563.655 177.186 557.651C156.64 565.634 155.631 527.273 145.988 532.713C124.244 525.013 137.543 497.744 111.639 481.001C109.307 463.34 85.9247 448.081 78.4876 421.447C75.2103 407.813 52.0798 368.746 66.2606 405.128C78.3616 440.168 99.6013 470.192 117.312 500.146C131.051 528.686 147.312 558.498 172.27 576.301C180.716 585.485 188.846 599.402 200.758 602.228ZM119.265 501.982C124.434 512.297 120.274 497.179 119.265 501.982ZM234.603 616.286C240.905 613.177 225.59 612.33 234.603 616.286ZM249.981 622.573C248.405 613.884 242.985 627.448 249.981 622.573ZM269.204 631.545C278.343 621.796 255.086 625.399 269.204 631.545ZM302.104 652.103C307.713 642.919 284.33 648.641 302.104 652.103ZM238.889 602.722C253.069 592.408 220.548 602.581 238.889 602.722ZM253.321 610.776C252.88 605.336 248.153 613.177 253.321 610.776ZM325.36 661.145C336.957 669.34 392.987 679.089 357.881 664.536C352.02 665.949 292.776 645.745 325.36 661.145ZM210.968 561.324C209.834 555.885 193.006 555.319 210.968 561.324ZM244.498 583.224C253.258 576.442 226.409 577.996 244.498 583.224ZM272.733 602.651C285.213 597.353 252.376 597.353 272.733 602.651ZM197.291 544.652C210.905 556.308 252.124 546.136 218.09 537.658C202.649 528.404 167.732 522.116 191.493 543.239L197.291 544.652ZM291.83 609.363C297.503 598.554 268.07 603.146 291.83 609.363ZM263.091 583.719C296.305 594.245 235.17 560.123 254.897 579.833L259.309 582.094L263.091 583.719ZM320.696 621.019C352.146 621.372 292.271 616.215 320.696 621.019ZM185.19 524.236C183.993 517.666 177.438 524.801 185.19 524.236ZM373.89 654.505C374.772 642.636 363.68 663.335 373.89 654.505ZM238.889 561.112C236.998 554.895 229.057 560.83 238.889 561.112ZM188.216 520.138C206.241 518.937 163.447 511.237 188.216 520.138ZM128.089 476.621C125.82 466.872 108.425 459.172 128.089 476.621ZM285.843 588.805C284.267 589.723 282.565 584.566 285.843 588.805ZM384.037 656.341C383.722 649.913 378.68 658.814 384.037 656.341ZM277.145 578.773C278.91 570.437 261.767 576.23 277.145 578.773ZM204.035 526.779C217.46 525.154 182.48 516.606 204.035 526.779ZM327.755 612.966C348.68 603.64 307.335 608.444 327.755 612.966ZM263.406 564.009C287.545 567.47 234.666 545.57 258.111 562.031L263.406 564.009ZM347.293 621.867C369.856 606.749 362.419 657.26 385.55 626.105C408.365 607.455 365.823 649.206 393.932 629.426C414.29 614.166 444.29 636.632 463.261 643.979C476.874 643.202 490.173 657.189 504.165 648.712C531.077 640.588 451.475 636.632 472.336 622.22C447.693 630.274 429.479 612.612 417.378 594.951C389.71 587.816 357.755 571.992 343.953 544.511C338.343 534.197 352.083 545.994 339.1 529.11C322.461 512.509 314.141 493.646 302.986 473.442C289.624 465.459 288.049 441.934 286.725 472.665C286.851 453.308 270.591 440.239 266.62 445.679C266.557 427.028 284.015 436.353 271.788 422.578C269.141 403.221 260.506 383.087 257.922 361.258C253.889 350.732 257.355 328.196 244.12 352.004C239.33 377.224 242.544 321.061 250.044 339.57C259.876 320.708 246.515 322.898 245.947 325.512C252.376 309.546 249.981 286.94 244.246 295.558C247.649 278.674 249.666 233.391 239.141 241.444C245.506 223.783 251.242 160.627 223.573 184.717C212.355 184.929 193.006 189.238 183.804 194.395C212.544 212.127 180.905 200.824 169.182 197.998C167.669 214.458 156.073 207.323 141.577 207.464C164.707 210.643 130.295 233.956 117.059 224.913C99.7904 234.168 131.934 257.198 117.375 264.333C119.139 275.071 90.9668 260.448 93.1727 285.244C76.4708 277.332 90.9037 314.632 99.2232 302.058C127.648 310.676 119.265 330.386 119.959 349.036C115.295 359.916 97.0803 323.463 115.925 325.158C101.051 298.102 99.4753 315.41 87.1852 327.914C84.349 328.832 118.635 345.787 97.0803 354.194C116.051 357.514 116.618 376.093 120.463 387.82C131.871 401.102 129.539 373.126 143.152 389.092C134.518 374.822 97.4584 348.966 127.27 357.231C127.081 342.89 121.849 331.305 131.051 331.587C140.127 313.22 121.534 376.941 141.955 353.558C147.627 350.803 149.014 335.19 159.161 355.041C173.909 371.29 164.518 383.087 143.656 368.181C147.375 382.381 171.514 387.397 166.976 409.579C171.766 429.077 178.51 421.871 184.371 420.741C188.972 439.674 191.556 425.757 191.808 416.714C212.859 421.801 207.943 435.718 214.498 445.467C228.993 452.814 193.762 395.733 218.657 428.3C244.876 454.792 228.489 465.883 204.981 461.644C219.855 460.302 224.645 484.18 243.237 483.332C260.191 492.375 271.725 527.132 242.481 512.65C232.334 502.406 196.409 489.761 225.779 509.259C252.88 523.317 274.372 531.724 300.528 549.385C319.184 564.362 327.314 581.458 334.373 584.849C318.679 593.256 287.04 578.138 310.549 573.475C295.864 570.508 279.414 562.172 293.469 582.659C305.381 593.821 335.759 592.69 341.243 593.891C336.642 605.265 328.7 606.184 341.432 607.031C327.251 615.65 345.97 616.992 347.293 621.867ZM318.301 530.028C309.667 519.926 307.461 500.993 316.789 517.454C321.515 519.573 332.104 548.396 318.301 530.028ZM412.777 597.282C418.134 596.859 412.903 601.874 412.777 597.282ZM304.688 505.232C307.776 517.03 304.309 489.902 304.688 505.232ZM295.297 491.033C308.973 497.744 284.393 467.578 295.297 491.033ZM181.472 403.009C187.838 401.102 184.623 415.231 181.472 403.009ZM272.04 458.041C276.641 471.888 275.948 441.581 272.04 458.041ZM208.069 408.166C217.523 416.714 203.594 399.053 208.069 408.166ZM262.964 427.876C252.691 402.091 270.275 413.747 265.233 432.115L262.964 427.876ZM168.3 357.161C163.699 348.683 156.136 323.816 158.531 316.257C160.736 328.62 181.976 369.453 168.93 333.141C154.56 302.764 186.136 343.032 189.413 350.591C190.926 358.15 180.527 348.542 187.585 366.203C174.728 346.069 180.022 377.365 168.3 357.161ZM139.056 334.554C145.736 348.047 140.253 314.844 139.056 334.554ZM152.165 339.641C162.816 360.34 158.468 324.735 152.165 339.641ZM120.526 312.16C109.622 300.009 101.744 288.847 121.03 304.601C128.467 304.954 104.517 279.169 122.795 296.406C142.081 300.362 132.312 331.799 120.526 312.16ZM137.165 311.665C143.467 304.671 140.505 318.589 137.165 311.665ZM147.375 315.339C159.035 323.816 137.795 295.205 147.375 315.339ZM127.081 293.58C95.4416 262.002 166.85 310.111 132.249 299.444L127.081 293.58ZM217.775 352.639C204.035 343.456 214.119 287.787 218.783 325.865C232.082 321.061 218.027 345.504 227.985 345.292C226.472 360.693 221.998 366.274 217.775 352.639ZM251.368 374.892C254.204 386.337 252.691 358.079 251.368 374.892ZM245.506 368.393C247.019 361.258 245.695 376.871 245.506 368.393ZM133.257 283.195C112.9 251.759 192.375 315.056 146.304 291.178C141.451 289.695 135.652 289.2 133.257 283.195ZM197.922 321.556C202.207 325.936 195.968 295.064 197.922 321.556ZM246.956 356.878C250.737 341.76 247.271 366.839 246.956 356.878ZM136.408 271.186C148.509 268.289 186.514 294.993 151.598 278.815C147.69 273.941 139.434 276.131 136.408 271.186ZM240.212 329.185C241.473 302.058 247.46 313.008 240.275 333.071L240.212 329.185ZM145.358 261.719C150.274 253.595 132.249 225.125 147.942 251.476C154.749 257.481 167.543 261.578 156.199 264.121C174.098 281.783 151.913 268.925 145.358 261.719ZM235.107 320.708C238.51 289.836 238.069 338.793 235.107 320.708ZM135.085 233.25C138.866 231.413 137.102 238.831 135.085 233.25ZM158.468 248.862C169.623 264.616 164.518 234.662 158.468 248.862ZM224.456 289.977C225.716 297.89 224.456 284.538 224.456 289.977ZM220.674 280.511C229.183 293.933 211.535 255.149 220.674 280.511ZM215.065 263.909C220.296 277.049 213.489 253.454 215.065 263.909ZM224.204 247.237C217.901 234.804 232.145 192.488 233.72 218.767C227.103 239.184 231.83 250.628 236.431 223.218C245.002 201.601 234.603 265.746 224.204 247.237ZM233.594 184.293C236.368 180.549 234.225 188.885 233.594 184.293ZM217.901 531.3C218.342 533.631 214.182 527.627 217.901 531.3ZM250.233 549.668C268.259 554.895 268.133 546.559 251.872 544.087C243.111 534.974 215.506 525.295 240.212 542.957C241.914 547.548 247.082 547.407 250.233 549.668ZM186.325 502.053C196.22 510.389 223.699 525.507 200.443 505.232C208.258 495.059 185.443 489.62 193.006 482.767C173.72 469.557 177.816 470.757 191.304 471.181C168.173 459.596 194.644 460.443 193.384 454.509C184.434 452.531 149.077 436.848 169.875 455.781C148.699 443.701 164.833 460.302 158.404 458.536C136.724 451.895 177.69 477.045 155.001 470.757C167.417 481.778 188.405 499.015 160.232 482.414C156.64 488.419 180.464 497.532 186.325 502.053ZM220.17 523.882C261.326 538.718 200.002 505.656 220.17 523.882ZM393.491 641.506C393.995 632.322 387.819 649.348 393.491 641.506ZM411.264 649.913C420.781 639.599 411.643 666.373 427.021 647.37C427.21 633.806 426.58 625.752 409.374 642.283C404.647 645.25 402.504 657.754 411.264 649.913ZM128.593 450.906C125.631 438.049 108.11 438.12 128.593 450.906ZM147.564 464.894C140.505 451.754 122.354 453.026 147.564 464.894ZM255.779 538.011C266.368 548.537 304.309 545.712 268.574 539.283C263.343 530.523 235.044 532.642 255.779 538.011ZM404.521 640.941C420.718 625.682 388.764 647.793 404.521 640.941ZM438.302 667.009C438.429 662.134 431.307 669.128 438.302 667.009ZM438.366 660.156C456.391 638.751 420.907 661.428 438.366 660.156ZM81.765 407.036C66.4497 382.522 72.2481 371.501 57.437 351.438C54.6008 336.108 32.0376 301.351 45.7772 338.157C58.3194 359.704 62.0379 393.048 81.765 407.036ZM432.693 653.374C465.845 629.355 419.143 642.919 432.693 653.374ZM457.967 664.466C474.605 648.5 447.504 661.145 457.967 664.466ZM122.921 423.779C127.711 415.866 110.694 422.79 122.921 423.779ZM452.735 656.836C468.807 645.25 449.017 647.016 449.836 657.896L452.735 656.836ZM234.792 502.901C234.225 495.059 226.283 503.537 234.792 502.901ZM248.279 511.59C243.931 501.841 241.662 513.074 248.279 511.59ZM478.513 664.678C499.122 648.005 466.034 661.499 474.227 667.857L478.513 664.678ZM470.572 660.439C487.4 644.685 452.925 667.433 470.572 660.439ZM510.845 690.463C522.127 682.056 497.169 687.778 510.845 690.463ZM133.257 418.056C148.32 421.871 193.51 459.666 166.85 420.67C153.173 416.149 161.367 378.707 147.438 385.348C156.766 402.868 155.127 410.286 135.463 399.265C110.82 385.772 121.597 405.906 126.45 411.486C119.896 413.253 135.211 417.915 133.257 418.056ZM64.5589 357.231C67.269 344.727 39.6637 288.353 51.5126 328.973C55.7983 337.521 55.3571 353.628 64.5589 357.231ZM190.674 444.407C190.296 443.347 182.922 437.131 190.674 444.407ZM209.771 449.423C209.771 436.142 188.657 443.983 209.771 449.423ZM375.529 566.481C372.377 557.439 363.05 566.34 375.529 566.481ZM383.47 573.051C382.335 567.965 378.932 574.04 383.47 573.051ZM449.206 619.394C455.509 614.166 441.328 618.758 449.206 619.394ZM98.845 367.051C116.933 359.209 79.4961 361.47 98.845 367.051ZM360.97 552.14C360.718 539 349.436 555.39 360.97 552.14ZM91.7231 348.401C103.32 344.021 80.9456 345.504 91.7231 348.401ZM125.379 366.698C125.19 362.388 121.849 368.323 125.379 366.698ZM536.434 649.206C551.371 645.815 585.405 657.754 590.888 644.756C572.737 644.261 528.177 630.415 526.098 648.005L530.068 648.712L536.434 649.206ZM136.093 369.735C136.408 356.454 126.892 369.241 136.093 369.735ZM47.5419 300.857C43.5083 275.566 32.2266 297.042 47.5419 300.857ZM68.6556 306.791C68.9077 298.667 49.3066 299.514 68.6556 306.791ZM80.6935 313.431C77.9834 317.458 77.2271 310.323 80.6935 313.431ZM156.703 368.04C160.295 364.366 148.194 365.355 156.703 368.04ZM72.6893 298.455C70.6094 279.31 48.2352 295.629 72.6893 298.455ZM29.3905 266.947C28.7602 258.117 25.1677 270.267 29.3905 266.947ZM35.8191 261.507C34.7477 251.052 30.2728 262.85 35.8191 261.507ZM71.4287 285.315C86.4919 278.674 44.0125 271.61 68.3405 284.043L71.4287 285.315ZM547.841 615.156C557.484 605.265 535.614 612.118 547.841 615.156ZM605.384 648.641C609.229 635.854 595.678 650.266 605.384 648.641ZM75.0212 264.404C76.6599 252.041 63.1093 266.877 75.0212 264.404ZM24.4114 226.397C21.7013 208.948 22.0795 178.217 48.1092 188.602C13.3819 196.373 72.1851 236.994 64.748 204.921C79.37 205.698 93.2987 195.243 85.6726 211.138C114.475 207.605 134.392 179.63 162.186 183.516C183.867 180.266 207.502 177.864 230.821 168.115C249.981 166.561 268.448 143.389 257.985 129.684C231.83 127.212 204.413 130.885 175.548 137.314C143.53 144.802 114.412 158.931 82.0801 165.077C50.5672 169.81 88.3827 178.147 79.37 179.983C62.9202 186.341 98.9711 190.721 77.2271 197.433C63.8026 194.536 49.8109 189.379 55.5462 173.555C25.3568 177.935 -1.17709 191.993 22.7097 226.397H24.4114ZM97.1433 184.858C104.202 155.611 135.022 208.877 108.74 188.743C105.589 186.059 100.421 183.939 97.1433 184.858ZM98.5299 170.658C108.74 162.181 103.95 175.462 98.5299 170.658ZM111.513 170.941C112.459 157.518 141.198 178.076 116.24 175.745L111.513 170.941ZM129.223 162.887C135.715 154.41 131.114 170.446 129.223 162.887ZM133.761 159.496C144.539 144.944 194.833 150.242 158.026 158.083C148.194 149.747 140.631 163.029 133.761 159.496ZM199.434 148.193C232.082 162.252 197.796 108.491 199.434 148.193ZM218.09 148.052C224.897 128.059 244.561 139.998 221.241 144.025C221.745 146.144 220.548 154.339 218.09 148.052ZM67.7102 254.16C88.0676 240.173 46.0923 242.01 67.7102 254.16ZM82.7734 258.823C89.8953 250.346 67.269 255.361 82.7734 258.823ZM38.4032 223.571C50.063 213.54 24.6635 219.756 38.4032 223.571ZM639.355 644.968C639.67 633.311 630.468 650.195 639.355 644.968ZM578.283 598.271C580.048 584.849 570.468 599.402 578.283 598.271ZM656.183 649.489C672.444 649.56 705.469 643.837 670.049 643.837C664.502 644.756 637.716 644.614 656.183 649.489ZM96.0088 250.628C109.181 249.639 116.618 234.38 93.4248 235.228C57.563 231.06 125.064 249.003 88.8239 243.846C83.9709 247.449 95.6937 251.617 96.0088 250.628ZM107.606 257.198C106.219 247.732 103.509 262.214 107.606 257.198ZM121.345 216.083C127.018 208.171 113.404 213.964 121.345 216.083ZM77.5422 134.135C101.051 125.163 133.131 115.131 144.224 138.515C132.942 123.326 139.686 108.279 150.337 130.603C165.4 153.138 172.963 120.359 163.131 112.8C174.287 128.342 187.018 135.689 170.632 113.789C188.468 89.7699 134.959 116.968 122.795 116.686C116.996 119.582 62.416 132.227 77.5422 134.135ZM91.3449 104.605C104.769 93.3022 137.669 111.387 116.555 93.3728C114.475 91.2535 70.2312 107.007 91.3449 104.605ZM140.19 106.866C155.883 107.29 133.446 83.2706 152.102 94.1499C149.014 82.9174 130.358 80.798 121.219 76.3474C116.051 86.5909 131.682 107.007 140.19 106.866ZM99.9164 57.132C105.337 48.9372 90.3995 61.3707 99.9164 57.132ZM119.833 62.501C145.106 58.7568 113.404 50.3501 114.728 62.2184L119.833 62.501ZM82.5843 29.8631C64.811 3.79515 116.051 34.2431 97.9626 6.97416C82.7734 -6.58964 68.1514 22.2335 82.5843 29.8631ZM310.801 167.621C318.931 151.443 277.145 145.791 305.318 161.898C307.965 162.887 307.335 168.751 310.801 167.621Z" fill="white"/>
</svg>
