<svg width="598" height="700" viewBox="0 0 598 700" fill="none" xmlns="http://www.w3.org/2000/svg">
<path d="M24.4273 366.001C24.4273 387.811 22.6825 394.915 18.1958 400.149C13.2024 404.645 6.71967 407.132 0 407.128L1.74481 419.591C12.1626 419.732 22.2711 416.052 30.1603 409.247C34.4051 404.07 37.5639 398.092 39.4481 391.669C41.3324 385.245 41.9036 378.507 41.1276 371.858V289.354H24.4273V365.502V366.001Z" fill="white"/>
<path d="M148.974 356.17C148.974 365.518 148.974 373.868 149.722 381.096H134.891L133.894 366.265C130.792 371.513 126.355 375.845 121.036 378.822C115.717 381.799 109.704 383.315 103.609 383.215C89.1519 383.215 71.9531 375.363 71.9531 343.334V290.117H88.6534V339.969C88.6534 357.292 94.0125 368.883 109.093 368.883C112.195 368.916 115.273 368.329 118.146 367.157C121.019 365.986 123.629 364.252 125.823 362.058C128.017 359.864 129.751 357.254 130.922 354.381C132.094 351.508 132.681 348.43 132.648 345.328V289.494H149.348V355.672L148.974 356.17Z" fill="white"/>
<path d="M180.63 319.766C180.63 308.176 180.63 298.704 179.882 290.104H194.837L195.585 305.683C198.917 300.055 203.714 295.436 209.464 292.319C215.215 289.203 221.703 287.705 228.238 287.986C250.422 287.986 267.122 306.555 267.122 334.223C267.122 366.876 247.057 383.078 225.371 383.078C219.821 383.325 214.301 382.136 209.345 379.626C204.388 377.115 200.164 373.367 197.081 368.746V418.597H180.63V320.14V319.766ZM197.081 344.069C197.126 346.33 197.376 348.583 197.828 350.799C199.242 356.333 202.461 361.237 206.976 364.736C211.49 368.234 217.043 370.128 222.754 370.116C240.327 370.116 250.671 355.784 250.671 334.971C250.671 316.775 240.95 301.196 223.377 301.196C216.423 301.766 209.916 304.852 205.074 309.877C200.233 314.902 197.391 321.52 197.081 328.49V344.069Z" fill="white"/>
<path d="M296.878 290.02L316.943 343.735C319.062 349.717 321.305 356.946 322.801 362.305C324.545 356.821 326.415 349.842 328.658 343.361L346.854 290.02H364.427L339.501 354.827C327.038 385.984 319.436 402.061 307.97 411.783C302.194 417.057 295.154 420.75 287.53 422.501L283.418 408.542C288.748 406.791 293.696 404.042 297.999 400.441C304.079 395.486 308.904 389.167 312.082 381.996C312.763 380.754 313.226 379.406 313.453 378.008C313.312 376.504 312.933 375.032 312.332 373.646L278.433 289.771H296.628L296.878 290.02Z" fill="white"/>
<path d="M408.761 263.875V290.047H432.69V302.51H408.761V351.614C408.761 362.831 412.002 369.311 421.224 369.311C424.5 369.365 427.768 368.988 430.945 368.19L431.693 380.653C426.929 382.303 421.902 383.064 416.862 382.896C413.525 383.105 410.182 382.589 407.063 381.385C403.943 380.18 401.122 378.315 398.791 375.917C393.715 369.127 391.399 360.666 392.31 352.237V302.386H378.103V289.923H392.559V267.739L408.761 263.875Z" fill="white"/>
<path d="M463.453 338.474C463.115 342.7 463.698 346.95 465.163 350.929C466.628 354.908 468.94 358.522 471.938 361.52C474.936 364.518 478.55 366.83 482.529 368.295C486.508 369.76 490.758 370.343 494.985 370.005C503.534 370.196 512.027 368.582 519.91 365.269L522.777 377.732C513.103 381.717 502.701 383.627 492.243 383.34C486.146 383.758 480.031 382.851 474.317 380.683C468.603 378.515 463.426 375.137 459.14 370.781C454.855 366.424 451.562 361.192 449.489 355.444C447.415 349.695 446.609 343.566 447.127 337.477C447.127 310.058 463.453 288.373 490.124 288.373C520.035 288.373 527.513 314.545 527.513 331.245C527.673 333.818 527.673 336.399 527.513 338.972H463.079L463.453 338.474ZM512.308 326.011C512.789 322.679 512.55 319.282 511.607 316.05C510.665 312.819 509.041 309.826 506.844 307.275C504.647 304.724 501.929 302.674 498.873 301.262C495.817 299.85 492.493 299.11 489.127 299.091C482.279 299.586 475.864 302.622 471.137 307.601C466.411 312.581 463.715 319.147 463.578 326.011H512.308Z" fill="white"/>
<path d="M552.852 318.361C552.852 307.643 552.852 298.42 552.104 289.946H567.06V307.768H567.808C569.377 302.267 572.621 297.392 577.087 293.818C581.554 290.245 587.023 288.151 592.734 287.827C594.305 287.621 595.897 287.621 597.469 287.827V303.406C595.565 303.185 593.641 303.185 591.736 303.406C586.079 303.625 580.695 305.896 576.589 309.795C572.484 313.694 569.938 318.954 569.428 324.592C568.962 327.143 568.712 329.727 568.68 332.319V380.8H552.229V318.486L552.852 318.361Z" fill="white"/>
<path d="M545.533 39.6952C546.045 48.0679 544.053 56.4033 539.811 63.6398C535.568 70.8764 529.268 76.6862 521.712 80.3295C514.156 83.9726 505.687 85.2842 497.383 84.0971C489.08 82.9098 481.317 79.2778 475.085 73.6633C468.852 68.0491 464.432 60.7065 462.388 52.5712C460.343 44.4359 460.766 35.8761 463.604 27.9822C466.441 20.0884 471.564 13.2178 478.32 8.2457C485.076 3.27362 493.159 0.425118 501.539 0.0630698C507.034 -0.239281 512.534 0.547547 517.723 2.37831C522.913 4.20906 527.689 7.04764 531.778 10.7308C535.866 14.4139 539.186 18.869 541.547 23.8398C543.908 28.8105 545.262 34.199 545.533 39.6952Z" fill="white"/>
<path d="M299.096 527.782C186.931 527.782 88.3485 487.527 37.3752 428.079C57.153 481.559 92.8398 527.697 139.632 560.282C186.424 592.867 242.077 610.335 299.096 610.335C356.117 610.335 411.768 592.867 458.561 560.282C505.353 527.697 541.04 481.559 560.818 428.079C509.97 487.527 411.761 527.782 299.096 527.782Z" fill="#F37726"/>
<path d="M299.096 141.207C411.263 141.207 509.845 181.462 560.818 240.91C541.04 187.43 505.353 141.292 458.561 108.707C411.768 76.1215 356.117 58.6533 299.096 58.6533C242.077 58.6533 186.424 76.1215 139.632 108.707C92.8398 141.292 57.153 187.43 37.3752 240.91C88.3485 181.337 186.432 141.207 299.096 141.207Z" fill="#F37726"/>
<path d="M144.686 643.47C145.344 654.016 142.848 664.519 137.515 673.641C132.182 682.763 124.254 690.091 114.742 694.691C105.229 699.292 94.5626 700.956 84.1009 699.473C73.639 697.989 63.8557 693.425 55.9973 686.361C48.1388 679.297 42.5612 670.054 39.9748 659.809C37.3885 649.564 37.9106 638.781 41.4746 628.833C45.0387 618.886 51.4833 610.225 59.9873 603.954C68.4914 597.682 78.67 594.084 89.2262 593.618C96.1414 593.248 103.062 594.245 109.592 596.55C116.122 598.855 122.134 602.425 127.284 607.054C132.434 611.684 136.622 617.282 139.608 623.531C142.594 629.779 144.32 636.555 144.686 643.47Z" fill="white"/>
<path d="M50.123 127.659C44.0791 127.826 38.1207 126.202 32.9972 122.992C27.8738 119.781 23.8139 115.128 21.3283 109.616C18.8426 104.105 18.0421 97.981 19.0274 92.0157C20.0128 86.0503 22.7399 80.5094 26.866 76.0899C30.9921 71.6704 36.3328 68.5695 42.2165 67.1772C48.1002 65.7849 54.2642 66.1634 59.9335 68.2651C65.6026 70.3668 70.5238 74.0978 74.0781 78.9889C77.6325 83.8801 79.6613 89.713 79.9093 95.7541C80.1455 103.923 77.1501 111.855 71.5733 117.828C65.9965 123.802 58.2885 127.334 50.123 127.659Z" fill="white"/>
</svg>
