<svg width="700" height="696" viewBox="0 0 700 696" fill="none" xmlns="http://www.w3.org/2000/svg">
<path d="M347.125 0.299996C169.625 0.299996 180.85 77.05 180.85 77.05V156.8H349.65V181.8H113.625C113.625 181.8 0 167.8 0 347.925C0 528.05 100.325 520.725 100.325 520.725H158.25V436.7C158.25 436.7 155 336.375 255.75 336.375H424.8C424.8 336.375 519.1 337.875 519.1 245.075V92.8C519.1 92.8 533.4 0 348.05 0L347.125 0.299996ZM253.825 53.725C259.826 53.5736 265.737 55.2052 270.811 58.4134C275.885 61.6216 279.893 66.2623 282.329 71.7487C284.765 77.2351 285.52 83.3207 284.497 89.2358C283.474 95.151 280.72 100.63 276.584 104.98C272.447 109.33 267.113 112.356 261.257 113.674C255.4 114.993 249.285 114.545 243.683 112.388C238.081 110.23 233.245 106.46 229.786 101.554C226.327 96.6477 224.4 90.826 224.25 84.825V84.325C224.25 80.3394 225.035 76.3928 226.56 72.7106C228.085 69.0283 230.321 65.6826 233.139 62.8643C235.958 60.0461 239.303 57.8105 242.986 56.2853C246.668 54.76 250.614 53.975 254.6 53.975L253.825 53.725Z" fill="url(#paint0_linear_1_82)"/>
<path d="M352.125 695.55C529.625 695.55 518.4 618.55 518.4 618.55V539.05H349.625V514.05H586.375C586.375 514.05 700 526.75 700 347.675C700 168.6 599.675 174.875 599.675 174.875H541V257.8C541 257.8 544.25 358.125 443.5 358.125H274.375C274.375 358.125 180 356.7 180 449.5V602.8C180 602.8 165.7 695.6 351.05 695.6H352.05L352.125 695.55ZM445.425 641.875C439.424 642.026 433.513 640.395 428.439 637.187C423.365 633.978 419.357 629.338 416.921 623.851C414.485 618.365 413.73 612.279 414.753 606.364C415.776 600.449 418.53 594.97 422.666 590.62C426.803 586.27 432.137 583.244 437.993 581.926C443.849 580.607 449.965 581.055 455.567 583.212C461.169 585.37 466.005 589.14 469.464 594.046C472.923 598.952 474.85 604.774 475 610.775V611.525C475 619.574 471.802 627.294 466.111 632.986C460.419 638.677 452.699 641.875 444.65 641.875H445.425Z" fill="url(#paint1_linear_1_82)"/>
<defs>
<linearGradient id="paint0_linear_1_82" x1="69.179" y1="68.3725" x2="401.346" y2="399.787" gradientUnits="userSpaceOnUse">
<stop stop-color="#387EB8"/>
<stop offset="1" stop-color="#366994"/>
</linearGradient>
<linearGradient id="paint1_linear_1_82" x1="265.687" y1="284.264" x2="645.192" y2="615.579" gradientUnits="userSpaceOnUse">
<stop stop-color="#FFE052"/>
<stop offset="1" stop-color="#FFC331"/>
</linearGradient>
</defs>
</svg>
