<svg width="579" height="700" viewBox="0 0 579 700" fill="none" xmlns="http://www.w3.org/2000/svg">
<path d="M492.799 204.734L440.91 256.622C526.075 341.787 526.075 478.84 440.91 562.876C355.746 648.041 218.693 648.041 134.656 562.876C49.4914 477.712 49.4914 340.659 134.656 256.622L270.017 121.261L289.193 102.085V0L85.0237 204.17C-28.3412 317.534 -28.3412 500.836 85.0237 614.765C198.389 728.694 381.69 728.13 493.363 614.765C606.728 500.836 606.728 318.662 492.799 204.734Z" fill="#EE4C2C"/>
<path d="M428.893 155.065C429.279 134.199 412.678 116.971 391.812 116.584C370.946 116.198 353.718 132.8 353.332 153.665C352.945 174.531 369.547 191.759 390.413 192.146C411.278 192.532 428.506 175.93 428.893 155.065Z" fill="#EE4C2C"/>
</svg>
