<svg width="700" height="378" viewBox="0 0 700 378" fill="none" xmlns="http://www.w3.org/2000/svg">
<path d="M537.002 320.692C622.494 235.254 636.715 110.872 568.726 42.9379C500.737 -24.9963 376.355 -10.775 290.863 74.6625C205.371 160.1 230.094 323.427 259.138 352.416C282.604 375.882 451.509 406.129 537.002 320.692Z" fill="#F89939"/>
<path d="M186.172 197.24C136.561 147.684 64.3606 139.424 24.9237 178.806C-14.5131 218.243 -6.25382 290.389 43.3568 339.945C92.9674 389.556 187.758 375.17 204.605 358.378C218.225 344.759 235.837 246.795 186.172 197.24Z" fill="#3499CD"/>
<path d="M677.246 307.291C674.073 307.291 672.487 305.377 672.487 301.493C672.487 298.594 674.401 292.249 678.176 282.568C683.7 268.401 686.49 258.228 686.49 252.047C686.49 248.327 685.396 245.21 683.208 242.748C681.02 240.287 678.285 239.029 675.003 239.029C670.19 239.029 664.665 241.271 658.43 245.811C652.194 250.351 643.826 258.501 633.269 270.316C634.8 262.658 638.082 252.156 643.005 238.81L619.43 243.35C614.07 254.946 610.187 265.393 607.78 274.691C606.577 279.231 605.701 283.935 605.1 288.694C597.716 295.859 592.902 300.18 590.824 301.767C588.69 303.353 586.448 304.119 584.151 304.119C582.017 304.119 580.322 303.298 579.064 301.712C577.806 300.126 577.204 297.938 577.204 295.258C577.204 292.359 577.751 289.022 578.845 285.248C579.939 281.474 582.346 274.363 586.12 263.916L595.09 239.193L586.284 239.576C578.298 254.782 568.945 262.986 558.224 264.135C561.123 256.587 562.6 250.789 562.6 246.741C562.6 241.6 560.084 239.029 555.052 239.029C549.09 239.029 544.44 241.818 541.104 247.452C537.712 253.086 536.017 258.392 536.017 263.369C536.017 268.347 538.806 271.847 544.331 274.309C540.721 279.614 536.673 284.592 532.297 289.296C527.101 294.437 523.054 298.375 520.1 300.946C517.092 303.626 514.302 304.939 511.786 304.939C507.848 304.939 505.879 302.15 505.879 296.625C505.879 291.101 508.066 281.583 512.442 267.362L520.975 239.029H515.56L495.814 249.968C492.587 242.584 486.953 238.865 478.913 238.865C472.513 238.865 465.184 241.6 456.87 247.015C448.556 252.43 441.718 259.486 436.413 268.292C432.31 275.074 429.794 282.185 428.865 289.515C421.426 296.953 415.846 301.767 412.127 304.009C408.244 306.307 404.196 307.455 399.93 307.455C389.045 307.455 382.317 301.165 379.746 288.585C408.134 280.271 422.301 269.441 422.301 256.094C422.301 251.062 420.496 247.015 416.886 243.897C413.276 240.779 408.462 239.248 402.5 239.248C390.959 239.248 380.457 244.772 370.995 255.821C362.407 265.83 357.758 276.934 356.937 289.132C349.116 296.844 343.208 301.931 339.379 304.392C335.441 306.908 331.722 308.166 328.276 308.166C324.83 308.166 322.095 306.525 320.071 303.244C317.993 299.962 316.953 295.531 316.953 289.897C316.953 287.381 317.227 282.787 317.719 276.059C330.628 262.056 340.09 248.929 346.162 236.622C352.233 224.315 355.242 211.571 355.242 198.443C355.242 193.794 354.64 190.129 353.437 187.394C352.233 184.659 350.702 183.292 348.842 183.292C348.459 183.292 347.858 183.401 347.092 183.675L322.533 192.755C314.164 208.726 306.999 226.175 301.146 245.155C295.293 264.08 292.34 280.325 292.34 293.836C292.34 302.861 294.418 310.026 298.685 315.386C302.896 320.747 308.475 323.427 315.367 323.427C321.384 323.427 327.674 321.513 334.293 317.684C340.911 313.855 348.569 307.893 357.375 299.852C366.181 291.812 357.375 299.743 357.375 299.743C358.414 305.814 360.93 310.901 364.868 315.058C370.283 320.637 377.339 323.482 386.091 323.482C393.967 323.482 401.133 321.567 407.642 317.738C413.932 314.074 420.988 308.33 428.865 300.727C429.521 306.416 431.381 311.339 434.498 315.551C438.491 320.856 443.305 323.536 448.938 323.536C454.572 323.536 460.37 321.348 465.84 316.973C471.31 312.597 477.217 305.76 483.671 296.57C483.07 314.566 487.883 323.536 498.057 323.536C502.104 323.536 506.371 322.059 510.801 319.106C515.232 316.152 522.616 309.753 532.954 299.962C541.924 291.101 548.488 282.787 552.7 275.02C558.388 274.035 563.584 272.339 568.343 269.878C558.607 285.139 553.739 297.336 553.739 306.416C553.739 311.339 555.106 315.441 557.786 318.723C560.467 322.005 563.803 323.7 567.741 323.7C576.329 323.7 588.526 315.988 604.279 300.727C604.279 301.931 604.17 303.079 604.17 304.283C604.17 308.549 604.553 315.004 605.209 323.7L626.596 318.668C626.596 312.87 626.705 308.276 626.869 304.83C627.198 300.235 627.854 295.203 628.784 289.733C629.385 286.506 630.862 283.443 633.214 280.544L638.629 274.254C640.598 271.957 642.513 269.878 644.208 268.073C646.232 265.94 648.037 264.135 649.623 262.658C651.428 261.072 653.015 259.759 654.382 258.884C655.859 258.009 657.062 257.516 657.938 257.516C659.524 257.516 660.344 258.556 660.344 260.634C660.344 262.713 658.813 267.526 655.804 275.129C650.116 289.296 647.272 299.852 647.272 306.744C647.272 311.831 648.584 315.879 651.264 318.942C653.89 321.95 657.391 323.482 661.712 323.482C672.323 323.482 685.122 315.605 700 299.907V288.803C689.443 301.22 681.84 307.455 677.136 307.455L677.246 307.291ZM320.29 261.947C324.666 240.56 329.151 223.987 333.691 212.118C338.231 200.248 341.731 194.286 344.083 194.286C345.177 194.286 346.107 194.997 346.818 196.474C347.529 197.896 347.858 199.865 347.858 202.217C347.858 210.367 345.341 220.049 340.2 231.371C335.113 242.639 328.44 252.867 320.29 261.947ZM384.778 256.587C388.662 250.078 392.709 246.85 396.976 246.85C401.461 246.85 403.758 249.968 403.758 256.149C403.758 268.675 395.499 277.208 378.98 281.857C378.98 271.464 380.895 263.041 384.778 256.587ZM480.39 288.585C474.701 299.579 468.575 305.049 462.175 305.049C459.55 305.049 457.362 303.955 455.666 301.821C453.971 299.688 453.095 296.844 453.095 293.343C453.095 284.154 455.994 274.035 461.738 263.096C467.481 252.156 473.607 246.686 480.061 246.686C482.741 246.686 484.929 247.671 486.516 249.749C488.102 251.773 488.922 254.618 488.922 258.228C488.922 267.526 486.078 277.645 480.39 288.639V288.585Z" fill="#010101"/>
<path d="M412.729 193.52C413.549 194.668 413.932 196.145 413.932 197.896C413.932 199.646 413.44 201.232 412.455 202.709C411.471 204.186 410.049 205.389 408.134 206.21C406.275 207.03 404.141 207.468 401.789 207.468C397.851 207.468 394.898 206.647 392.819 205.006C390.741 203.365 389.428 200.959 388.881 197.732L393.968 196.911C394.241 198.935 395.062 200.521 396.32 201.56C397.632 202.654 399.437 203.201 401.789 203.201C404.141 203.201 405.892 202.709 407.04 201.779C408.189 200.849 408.736 199.701 408.736 198.388C408.736 197.239 408.244 196.309 407.205 195.653C406.493 195.215 404.743 194.614 401.954 193.903C398.179 192.973 395.609 192.152 394.132 191.441C392.655 190.73 391.561 189.8 390.85 188.542C390.139 187.284 389.701 185.972 389.701 184.495C389.701 183.127 390.03 181.924 390.631 180.775C391.233 179.627 392.108 178.697 393.147 177.931C393.968 177.329 395.007 176.837 396.374 176.454C397.742 176.071 399.219 175.853 400.805 175.853C403.157 175.853 405.235 176.181 407.04 176.892C408.845 177.548 410.158 178.478 411.033 179.681C411.909 180.83 412.455 182.416 412.784 184.385L407.752 185.042C407.533 183.51 406.876 182.252 405.782 181.377C404.688 180.502 403.157 180.064 401.133 180.064C398.781 180.064 397.085 180.447 396.101 181.213C395.116 181.979 394.569 182.909 394.569 183.948C394.569 184.604 394.788 185.206 395.171 185.753C395.609 186.3 396.265 186.737 397.14 187.12C397.632 187.284 399.164 187.722 401.68 188.433C405.29 189.418 407.806 190.183 409.283 190.785C410.705 191.387 411.854 192.317 412.674 193.465L412.729 193.52ZM437.179 201.396C435.811 202.654 434.17 203.256 432.147 203.256C429.63 203.256 427.607 202.326 426.075 200.521C424.544 198.716 423.723 195.708 423.723 191.66C423.723 187.613 424.544 184.714 426.13 182.909C427.716 181.104 429.849 180.119 432.42 180.119C434.116 180.119 435.593 180.611 436.796 181.65C437.999 182.69 438.82 184.221 439.312 186.245L444.289 185.479C443.688 182.416 442.375 180.064 440.296 178.423C438.218 176.782 435.538 175.962 432.256 175.962C429.63 175.962 427.278 176.564 425.036 177.822C422.848 179.025 421.152 180.885 420.113 183.346C419.019 185.808 418.472 188.652 418.472 191.934C418.472 196.966 419.73 200.849 422.246 203.529C424.762 206.21 428.099 207.577 432.201 207.577C435.483 207.577 438.273 206.593 440.57 204.623C442.813 202.654 444.235 199.919 444.782 196.474L439.75 195.817C439.367 198.388 438.546 200.248 437.179 201.506V201.396ZM449.158 206.757H454.299V176.564H449.158V206.757ZM449.158 170.93H454.299V165.022H449.158V170.93ZM485.969 176.509H479.35L467.208 188.816V165.022H462.066V206.702H467.208V194.723L470.818 191.277L480.827 206.702H487.172L474.428 187.722L485.969 176.509ZM491.22 170.93H496.361V165.022H491.22V170.93ZM491.22 206.757H496.361V176.564H491.22V206.757ZM515.341 202.162C514.412 202.271 513.646 202.381 513.099 202.381C512.333 202.381 511.731 202.271 511.349 201.998C510.966 201.724 510.637 201.396 510.473 201.013C510.309 200.576 510.2 199.646 510.2 198.224V180.557H515.341V176.564H510.2V166.007L505.113 169.07V176.564H501.339V180.557H505.113V197.95C505.113 201.013 505.332 203.037 505.715 203.967C506.152 204.952 506.863 205.717 507.848 206.264C508.887 206.866 510.309 207.14 512.169 207.14C513.318 207.14 514.576 206.975 516.052 206.702L515.287 202.162H515.341Z" fill="white"/>
</svg>
