<svg width="653" height="700" viewBox="0 0 653 700" fill="none" xmlns="http://www.w3.org/2000/svg">
<path d="M373.057 107.686V215.384L559.579 323.081V215.384L373.057 107.686ZM0 215.384V323.081L93.2614 376.919V269.232L0 215.384ZM279.784 269.232L186.523 323.081V646.151L279.784 700V484.616L373.057 538.465V430.767L279.784 376.919V269.232Z" fill="#E55B2D"/>
<path d="M373.057 107.686L93.2614 269.232V376.919L279.784 269.232V376.919L373.057 323.081V107.686ZM652.852 161.535L559.579 215.384V323.081L652.852 269.232V161.535ZM466.318 376.919L373.057 430.767V538.465L466.318 484.616V376.919ZM373.057 538.465L279.784 484.616V700L373.057 646.151V538.465Z" fill="#ED8E24"/>
<path d="M373.057 0L0 215.384L93.2614 269.233L373.057 107.686L559.579 215.384L652.852 161.535L373.057 0ZM373.057 323.081L279.784 376.919L373.057 430.768L466.318 376.919L373.057 323.081Z" fill="#F8BF3C"/>
</svg>
